<svg width="105" height="105" viewBox="0 0 105 105" fill="none" xmlns="http://www.w3.org/2000/svg">
<path d="M89.6231 15.3769C82.2808 8.03463 72.9262 3.03449 62.7422 1.00877C52.5582 -1.01695 42.0022 0.0227253 32.4091 3.99633C22.816 7.96993 14.6166 14.699 8.84784 23.3326C3.07907 31.9662 -1.56787e-06 42.1165 0 52.5C1.56787e-06 62.8835 3.07907 73.0339 8.84785 81.6674C14.6166 90.301 22.816 97.0301 32.4091 101.004C42.0022 104.977 52.5582 106.017 62.7422 103.991C72.9263 101.965 82.2809 96.9654 89.6231 89.6231L74.8845 74.8845C70.4573 79.3118 64.8167 82.3268 58.6759 83.5483C52.5351 84.7697 46.1701 84.1428 40.3856 81.7468C34.6011 79.3508 29.657 75.2933 26.1786 70.0874C22.7001 64.8815 20.8435 58.7611 20.8435 52.5C20.8435 46.2389 22.7001 40.1185 26.1786 34.9126C29.657 29.7067 34.6011 25.6492 40.3856 23.2532C46.17 20.8572 52.5351 20.2303 58.6759 21.4517C64.8166 22.6732 70.4573 25.6882 74.8845 30.1155L89.6231 15.3769Z" fill="#E0A02C"/>
<path d="M88.1766 23.9942C82.5893 18.4069 75.4707 14.6019 67.7209 13.0604C59.9711 11.5188 51.9383 12.31 44.6382 15.3338C37.338 18.3576 31.0985 23.4783 26.7086 30.0482C22.3187 36.6182 19.9756 44.3423 19.9756 52.2439C19.9756 60.1456 22.3187 67.8697 26.7086 74.4397C31.0985 81.0096 37.338 86.1302 44.6382 89.1541C51.9383 92.1779 59.9712 92.969 67.7209 91.4275C75.4707 89.886 82.5893 86.081 88.1766 80.4937L76.9609 69.278C73.5919 72.6471 69.2995 74.9414 64.6265 75.8709C59.9536 76.8004 55.1099 76.3234 50.7081 74.5001C46.3062 72.6768 42.5439 69.5891 39.8969 65.6275C37.2498 61.666 35.837 57.0085 35.837 52.2439C35.837 47.4794 37.2498 42.8219 39.8969 38.8603C42.5439 34.8988 46.3062 31.8111 50.708 29.9878C55.1099 28.1645 59.9536 27.6875 64.6265 28.617C69.2995 29.5465 73.5919 31.8408 76.9609 35.2098L88.1766 23.9942Z" fill="#DBCA2C"/>
</svg>
