<svg width="205" height="205" viewBox="0 0 205 205" fill="none" xmlns="http://www.w3.org/2000/svg">
<path d="M174.978 30.0215C160.644 15.6867 142.38 5.92449 122.497 1.96951C102.614 -1.98548 82.0044 0.0443685 63.2749 7.80235C44.5455 15.5603 28.5372 28.698 17.2744 45.5541C6.01151 62.4101 -3.06107e-06 82.2274 0 102.5C3.06108e-06 122.773 6.01153 142.59 17.2744 159.446C28.5372 176.302 44.5455 189.44 63.275 197.198C82.0044 204.956 102.614 206.985 122.497 203.03C142.38 199.076 160.644 189.313 174.978 174.978L146.203 146.203C137.559 154.847 126.547 160.733 114.558 163.118C102.569 165.503 90.1415 164.279 78.848 159.601C67.5545 154.923 57.9018 147.001 51.1105 136.837C44.3192 126.673 40.6944 114.724 40.6944 102.5C40.6944 90.276 44.3192 78.3265 51.1105 68.1627C57.9018 57.9988 67.5545 50.077 78.848 45.3991C90.1415 40.7212 102.569 39.4972 114.558 41.882C126.547 44.2668 137.559 50.1532 146.203 58.7968L174.978 30.0215Z" fill="#E0A02C"/>
<path d="M172.154 46.8457C161.246 35.9372 147.348 28.5084 132.217 25.4987C117.087 22.4891 101.403 24.0338 87.1507 29.9374C72.898 35.841 60.7161 45.8385 52.1454 58.6655C43.5746 71.4926 39 86.5731 39 102C39 117.427 43.5746 132.507 52.1454 145.334C60.7161 158.162 72.8981 168.159 87.1507 174.063C101.403 179.966 117.087 181.511 132.217 178.501C147.348 175.492 161.246 168.063 172.154 157.154L150.257 135.257C143.679 141.835 135.299 146.314 126.176 148.129C117.052 149.944 107.596 149.012 99.0014 145.452C90.4074 141.893 83.0619 135.864 77.8939 128.13C72.7259 120.395 69.9674 111.302 69.9674 102C69.9674 92.6978 72.7259 83.6046 77.8939 75.8701C83.0619 68.1357 90.4073 62.1074 99.0014 58.5476C107.595 54.9878 117.052 54.0564 126.176 55.8712C135.299 57.6859 143.679 62.1653 150.257 68.743L172.154 46.8457Z" fill="#DBCA2C"/>
</svg>
