<svg width="38" height="37" viewBox="0 0 38 37" fill="none" xmlns="http://www.w3.org/2000/svg">
<path d="M19.1805 9.29644C14.0059 9.29644 9.83201 13.4712 9.83201 18.647C9.83201 23.8228 14.0059 27.9976 19.1805 27.9976C24.3552 27.9976 28.529 23.8228 28.529 18.647C28.529 13.4712 24.3552 9.29644 19.1805 9.29644ZM19.1805 24.7261C15.8365 24.7261 13.1028 21.9999 13.1028 18.647C13.1028 15.2942 15.8284 12.5679 19.1805 12.5679C22.5326 12.5679 25.2583 15.2942 25.2583 18.647C25.2583 21.9999 22.5245 24.7261 19.1805 24.7261ZM31.0919 8.91395C31.0919 10.1265 30.1156 11.0949 28.9114 11.0949C27.6991 11.0949 26.7309 10.1184 26.7309 8.91395C26.7309 7.70952 27.7073 6.73296 28.9114 6.73296C30.1156 6.73296 31.0919 7.70952 31.0919 8.91395ZM37.2836 11.1275C37.1453 8.20594 36.4781 5.61805 34.3383 3.48588C32.2066 1.35372 29.6193 0.686402 26.6984 0.539917C23.688 0.369018 14.6649 0.369018 11.6545 0.539917C8.74176 0.678264 6.15444 1.34558 4.01462 3.47775C1.87479 5.60991 1.21576 8.1978 1.06931 11.1194C0.898447 14.1304 0.898447 23.1555 1.06931 26.1666C1.20762 29.0881 1.87479 31.676 4.01462 33.8082C6.15444 35.9404 8.73362 36.6077 11.6545 36.7542C14.6649 36.9251 23.688 36.9251 26.6984 36.7542C29.6193 36.6158 32.2066 35.9485 34.3383 33.8082C36.47 31.676 37.1372 29.0881 37.2836 26.1666C37.4545 23.1555 37.4545 14.1386 37.2836 11.1275ZM33.3945 29.3974C32.7599 30.9924 31.5313 32.2213 29.9285 32.8642C27.5283 33.8163 21.8329 33.5966 19.1805 33.5966C16.5281 33.5966 10.8246 33.8082 8.43258 32.8642C6.83788 32.2294 5.60932 31.0006 4.96656 29.3974C4.01462 26.9967 4.2343 21.3 4.2343 18.647C4.2343 15.994 4.02275 10.2893 4.96656 7.8967C5.60118 6.30164 6.82975 5.0728 8.43258 4.4299C10.8328 3.47775 16.5281 3.69747 19.1805 3.69747C21.8329 3.69747 27.5364 3.48588 29.9285 4.4299C31.5232 5.06466 32.7517 6.29351 33.3945 7.8967C34.3464 10.2974 34.1268 15.994 34.1268 18.647C34.1268 21.3 34.3464 27.0048 33.3945 29.3974Z" fill="white"/>
</svg>
