<svg width="67" height="67" viewBox="0 0 67 67" fill="none" xmlns="http://www.w3.org/2000/svg">
<path d="M33.4962 45.0271C39.9669 45.0271 45.2124 39.7816 45.2124 33.3109C45.2124 26.8402 39.9669 21.5947 33.4962 21.5947C27.0255 21.5947 21.78 26.8402 21.78 33.3109C21.78 39.7816 27.0255 45.0271 33.4962 45.0271Z" stroke="black" stroke-width="30" stroke-miterlimit="10"/>
<path d="M33.4962 38.1139C36.46 38.1139 38.8626 35.7112 38.8626 32.7474C38.8626 29.7836 36.46 27.381 33.4962 27.381C30.5324 27.381 28.1298 29.7836 28.1298 32.7474C28.1298 35.7112 30.5324 38.1139 33.4962 38.1139Z" stroke="black" stroke-width="30" stroke-miterlimit="10"/>
<path d="M33.4962 53.3169C44.5452 53.3169 53.5022 44.3599 53.5022 33.3109C53.5022 22.2619 44.5452 13.3049 33.4962 13.3049C22.4472 13.3049 13.4902 22.2619 13.4902 33.3109C13.4902 44.3599 22.4472 53.3169 33.4962 53.3169Z" stroke="black" stroke-width="19" stroke-miterlimit="10"/>
<path d="M33.4962 57.8173C47.0307 57.8173 58.0026 46.8454 58.0026 33.3109C58.0026 19.7764 47.0307 8.80457 33.4962 8.80457C19.9617 8.80457 8.98987 19.7764 8.98987 33.3109C8.98987 46.8454 19.9617 57.8173 33.4962 57.8173Z" stroke="black" stroke-width="17" stroke-miterlimit="10"/>
<path d="M42.4744 33.969C23.255 2.98806 -9.28023 62.4803 47.7311 57.2273C32.3504 57.2273 17.9188 42.376 28.9278 34.7707C40.6137 30.119 43.711 43.2647 41.128 43.1324C44.7283 42.6634 44.2102 36.0112 42.4744 33.969Z" fill="white"/>
<path d="M41.9335 34.1051C43.6694 35.6178 43.9228 38.4051 43.7185 40.6515C45.2086 31.6809 42.0961 26.1897 33.8857 23.1491C12.072 17.9264 11.6901 48.0828 7.33716 43.2572C5.7034 46.2259 23.2512 73.1943 50.5977 56.002C3.26789 66.092 14.8025 9.78781 41.5629 33.6399" fill="white"/>
<path d="M33.3109 61.6218C48.9466 61.6218 61.6218 48.9466 61.6218 33.3109C61.6218 17.6752 48.9466 5 33.3109 5C17.6752 5 5 17.6752 5 33.3109C5 48.9466 17.6752 61.6218 33.3109 61.6218Z" stroke="white" stroke-width="4" stroke-miterlimit="10"/>
</svg>
