<svg width="40" height="47" viewBox="0 0 40 47" fill="none" xmlns="http://www.w3.org/2000/svg">
<g clip-path="url(#clip0_1108_912)">
<path d="M38.7429 18.8355C39.1287 18.8355 39.5098 18.8123 39.8857 18.7776V11.0629C33.8833 10.6334 29.0816 5.95166 28.4555 0.0194092H21.8037C21.8037 0.0194092 21.7342 32.2313 21.7342 32.3883C21.7342 36.3596 18.2179 39.4886 14.2361 39.4886C10.2543 39.4886 7.02779 36.2705 7.02779 32.2992C7.02779 28.3278 10.2543 25.1098 14.2361 25.1098C14.5342 25.1098 14.8191 25.1625 15.1089 25.1971V18.2556C14.8191 18.2375 14.5309 18.211 14.2361 18.211C6.43648 18.211 0.112671 24.5183 0.112671 32.2974C0.112671 40.0766 6.43648 46.384 14.2361 46.384C22.0357 46.384 28.3594 40.0766 28.3594 32.2974V13.2385C30.5805 16.6069 34.3983 18.8355 38.7429 18.8355Z" fill="#FFFEFE"/>
</g>
<defs>
<clipPath id="clip0_1108_912">
<rect width="40" height="46.4" fill="white"/>
</clipPath>
</defs>
</svg>
