<svg width="174" height="199" viewBox="0 0 174 199" fill="none" xmlns="http://www.w3.org/2000/svg">
<path d="M87.6248 148.34C106.481 148.34 121.767 133.182 121.767 114.485C121.767 95.7867 106.481 80.6291 87.6248 80.6291C68.7687 80.6291 53.4829 95.7867 53.4829 114.485C53.4829 133.182 68.7687 148.34 87.6248 148.34Z" stroke="#DBCA2C" stroke-width="30" stroke-miterlimit="10"/>
<path d="M87.6248 128.363C96.2616 128.363 103.263 121.421 103.263 112.856C103.263 104.292 96.2616 97.3492 87.6248 97.3492C78.9881 97.3492 71.9866 104.292 71.9866 112.856C71.9866 121.421 78.9881 128.363 87.6248 128.363Z" stroke="#D4D82E" stroke-width="30" stroke-miterlimit="10"/>
<path d="M87.6249 172.294C119.823 172.294 145.924 146.412 145.924 114.484C145.924 82.557 119.823 56.6746 87.6249 56.6746C55.4273 56.6746 29.3259 82.557 29.3259 114.484C29.3259 146.412 55.4273 172.294 87.6249 172.294Z" stroke="#DDB32B" stroke-width="19" stroke-miterlimit="10"/>
<path d="M87.6248 185.299C127.065 185.299 159.038 153.594 159.038 114.485C159.038 75.3748 127.065 43.6701 87.6248 43.6701C48.1842 43.6701 16.2113 75.3748 16.2113 114.485C16.2113 153.594 48.1842 185.299 87.6248 185.299Z" stroke="#E0A02C" stroke-width="17" stroke-miterlimit="10"/>
<path d="M113.788 116.386C57.7812 26.8624 -37.0292 198.784 129.107 183.594C84.2857 183.594 42.2311 140.679 74.3121 118.703C108.366 105.261 117.392 143.247 109.865 142.865C120.356 141.51 118.846 122.287 113.788 116.386Z" fill="#60529E"/>
<path d="M112.212 116.779C117.27 121.151 118.009 129.205 117.414 135.696C121.756 109.774 112.686 93.9068 88.7599 85.1205C25.193 70.0288 24.0799 157.17 11.3951 143.226C6.63423 151.804 57.7699 229.733 137.46 180.053C-0.463041 209.21 33.1498 46.5114 111.132 115.435" fill="#4A3B8F"/>
<path d="M87.0848 196.293C132.648 196.293 169.585 159.666 169.585 114.485C169.585 69.3032 132.648 32.6764 87.0848 32.6764C41.5211 32.6764 4.58447 69.3032 4.58447 114.485C4.58447 159.666 41.5211 196.293 87.0848 196.293Z" stroke="#4A3B8F" stroke-width="4" stroke-miterlimit="10"/>
<path d="M8.22139 35.2007C8.9436 35.7462 9.70207 36.2427 10.4916 36.687C11.2851 37.1569 19.9694 43.8121 20.7188 43.2439C20.818 43.1564 20.7188 42.8942 20.5865 42.0964C20.2229 40.4353 18.9775 35.2772 18.4596 34.5778C18.4596 34.5232 18.3383 34.4904 18.2942 34.5123C17.9636 34.7636 17.3024 33.8019 16.7844 34.1953C16.2664 34.5888 15.6272 34.8401 15.4619 34.6215C15.0542 34.097 18.3714 31.7802 18.2281 31.5835C18.0849 31.3868 16.7403 32.6763 16.6411 32.5124C16.542 32.3485 16.7073 32.2938 16.6411 32.2392C16.575 32.1846 16.564 32.2392 16.3767 32.3485C16.024 32.5998 15.2746 32.6873 15.7154 32.3485C15.9702 32.0738 16.1787 31.7602 16.3326 31.4196C16.586 30.8841 16.9277 30.5453 17.9857 29.8132C19.3853 28.8296 20.7298 28.5346 21.2919 29.3542C21.311 29.3829 21.3236 29.4154 21.3289 29.4495C21.3343 29.4835 21.3321 29.5183 21.3227 29.5515C21.3133 29.5846 21.2969 29.6154 21.2744 29.6417C21.252 29.668 21.2241 29.6892 21.1927 29.7039C20.8841 29.9115 21.898 29.7039 21.5784 29.8678C24.4438 30.7858 23.7825 31.3868 24.1572 31.1682C24.2674 31.0917 25.2593 31.813 25.2593 31.813L26.3613 32.5015C26.6258 32.3376 26.8132 33.1244 26.9454 32.9167C27.0777 32.7091 27.1989 32.6982 27.5626 33.2337C27.645 33.3241 27.7452 33.3969 27.857 33.4477C27.9688 33.4984 28.0899 33.526 28.2128 33.5287C28.5875 33.5287 28.5985 33.5287 28.2899 33.6489C27.9814 33.7691 29.1275 33.6489 28.7528 33.9003C29.152 34.1447 29.5725 34.3532 30.0092 34.5232C30.3618 34.3593 30.0092 34.5232 30.0863 34.6434C30.1635 34.7636 31.7284 35.463 31.8166 35.616C31.9047 35.769 31.9819 35.9548 32.4006 35.6706C32.8194 35.3865 32.9737 35.6706 30.6594 29.9115C28.2459 23.9119 26.5156 19.9778 27.7059 19.3331C27.7646 19.2712 27.8074 19.1961 27.8304 19.1143C27.8535 19.0324 27.8561 18.9462 27.8381 18.8631C27.772 18.5462 28.5104 17.8578 29.2047 17.508C29.6345 17.2786 30.0422 17.2239 30.1414 17.4097C30.1877 17.5956 30.2466 17.7781 30.3177 17.9561C30.6373 18.579 31.4198 19.5079 31.7063 19.4095C31.7945 19.4095 31.8827 19.4095 31.9488 19.5625C32.1823 20.3108 32.3446 21.0792 32.4337 21.8575C33.2069 26.3038 34.312 30.6871 35.7399 34.9712C36.4228 36.6385 36.9324 38.3704 37.2607 40.1403C37.2105 40.3033 37.1281 40.4549 37.0184 40.5862C36.9087 40.7175 36.7738 40.826 36.6215 40.9052C36.5374 40.9682 36.4349 41.0022 36.3295 41.0022C36.2241 41.0022 36.1216 40.9682 36.0375 40.9052C35.5195 40.4244 35.4203 41.1019 34.748 40.8397C34.4505 40.7413 34.1309 40.6757 33.9986 40.7632C33.8706 40.8032 33.7352 40.8152 33.602 40.7982C33.4688 40.7812 33.3409 40.7357 33.2272 40.6648C32.753 40.4714 32.2393 40.3927 31.7284 40.4353C30.0533 40.5337 28.6316 39.3425 27.1548 38.5447C26.5377 38.2497 23.9258 36.5886 23.485 36.8837C23.0441 37.1787 23.3527 38.2606 23.8927 41.0801C24.3801 43.1931 24.6497 45.3497 24.6972 47.5168C24.7168 47.7691 24.669 48.0221 24.5588 48.2504C24.4485 48.4787 24.2796 48.6741 24.069 48.8172C23.5952 49.1888 23.4299 49.2325 23.2315 48.9921C22.7796 48.4457 22.3829 49.451 21.9862 48.9921C21.9391 48.9092 21.8876 48.829 21.8319 48.7516C21.5448 48.4761 21.1925 48.2766 20.8073 48.1716C20.4221 48.0666 20.0165 48.0593 19.6277 48.1506C18.68 48.4238 18.162 48.0304 12.4202 44.5006C4.4854 39.6048 4.34213 39.7578 3.04169 40.4353C2.98436 40.4824 2.91226 40.5082 2.83781 40.5082C2.76337 40.5082 2.69126 40.4824 2.63393 40.4353C2.63393 40.4353 2.57883 40.3042 2.50168 40.2277C2.42454 40.1512 2.0278 39.9436 1.39962 40.6102C1.04696 40.9599 0.451846 41.2877 0.231433 41.0692C0.0110206 40.8506 3.18496 37.2989 3.04169 37.1569C2.89842 37.0148 0.936753 38.8835 0.738382 38.9709L0 39.3425L0.330619 38.7305C1.12924 37.2858 2.13115 35.9612 3.30619 34.7964C4.40825 33.8129 5.37807 33.3976 6.05032 34.1735L6.3038 34.4576C6.82177 34.9712 7.87975 34.8073 8.22139 35.2007Z" fill="#4A3B8F"/>
<path d="M37.7127 23.9229C37.634 23.5628 37.634 23.1901 37.7127 22.8301C38.1536 19.8467 41.5589 15.9344 46.2537 14.2733C47.8471 13.7073 49.5319 13.4369 51.224 13.4755C52.9653 13.4755 52.9322 14.8197 53.9792 15.9672C54.6946 17.105 55.202 18.3591 55.478 19.6718C56.58 23.3655 57.4617 25.0703 58.3654 27.6494C58.5715 28.0591 58.8072 28.4536 59.0707 28.8296C59.1478 29.1028 58.6629 29.2777 58.1339 29.4307C57.6494 29.5971 57.1325 29.6494 56.6241 29.5837C56.5565 29.5538 56.4832 29.5384 56.4092 29.5384C56.3352 29.5384 56.262 29.5538 56.1943 29.5837C55.6821 29.8315 55.2162 30.1641 54.8167 30.5672C53.2394 31.9361 51.4494 33.0432 49.5158 33.8456C47.6034 34.6897 45.4734 34.9227 43.4214 34.5123C42.3193 34.2281 40.6332 33.9331 40.1152 32.8075C39.8266 32.1411 39.6777 31.4235 39.6777 30.6983C39.6777 29.9731 39.8266 29.2555 40.1152 28.5892C40.8867 26.644 42.2422 24.972 47.7635 20.8739C49.2293 19.7811 49.7693 18.8741 49.4607 17.9779C48.9097 16.3934 47.488 16.3169 45.857 16.8851C44.719 17.3383 43.6536 17.953 42.694 18.7101C41.7683 19.4205 41.7132 19.5625 41.9557 20.1089C42.1981 20.6553 42.5728 20.6444 42.661 20.8739C42.8814 21.3875 41.4267 23.5185 40.0932 24.1524C39.2955 24.3326 38.4605 24.2521 37.7127 23.9229ZM47.8076 31.059C47.1684 31.3103 46.3198 31.4852 45.9451 31.6381C45.7908 31.7037 45.6917 31.7802 45.7247 31.8458C45.8459 32.1299 46.4631 32.0316 47.0913 31.7693C47.5431 31.5835 49.097 30.8185 49.0089 30.589C49.0089 30.589 48.9207 30.589 48.7333 30.6546C48.546 30.7202 48.1382 30.9278 47.8076 31.059ZM47.0251 29.7913C48.3297 29.2423 49.5866 28.588 50.7832 27.8351C51.3122 27.5073 51.5767 27.3434 52.1167 27.0374L51.5326 25.3763C51.0256 23.9229 50.9044 23.7043 50.5077 23.8464C49.6637 24.3922 48.887 25.0341 48.1933 25.7588C45.857 28.0319 45.0084 29.3651 45.2288 29.8896C45.4492 30.4142 46.1435 30.141 47.0251 29.7913ZM44.6778 15.683C44.4054 15.7541 44.148 15.8725 43.9173 16.0327C43.9173 16.0983 46.6504 15.2896 47.3447 15.0492C47.6533 14.9399 47.8517 14.8416 47.8407 14.8088C46.7515 14.9575 45.6875 15.2516 44.6778 15.683Z" fill="#4A3B8F"/>
<path d="M78.4888 9.25726C78.4888 9.25726 78.4888 9.25726 78.4888 9.32282C78.4067 9.7132 78.2496 10.0842 78.0259 10.4156C76.4838 13.6201 75.3722 17.0112 74.7197 20.5024C73.4634 26.1522 73.4744 26.3926 72.5817 26.5129C71.6891 26.6331 71.9425 26.185 70.9287 26.338C69.9148 26.491 69.9258 26.4691 69.1543 25.7807C68.9398 25.5234 68.6516 25.3367 68.3278 25.2452C67.7768 25.3435 67.2257 24.6004 63.7653 20.2947C61.7155 17.8687 59.5113 15.0164 59.1366 15.1038C59.0669 15.1143 58.9958 15.0989 58.9368 15.0605C58.8779 15.0222 58.8352 14.9637 58.817 14.8962C58.7068 14.4919 56.7672 13.5848 56.5248 13.2788C56.4265 13.1526 56.2898 13.0611 56.135 13.0178C55.9802 12.9745 55.8155 12.9817 55.6652 13.0384C55.2684 13.1477 54.8386 13.1586 54.7725 12.9182C54.7064 12.6778 55.2794 12.1532 56.3154 11.8254L57.5276 11.3664H56.679C56.1501 11.3664 55.8966 11.3664 55.8635 11.1806C55.6762 10.5031 58.7179 9.37747 59.8971 9.11519C60.7677 8.91848 62.1893 8.87477 62.2775 9.27911C62.2775 9.38839 62.2775 9.54139 61.991 9.7381C61.9424 9.77142 61.905 9.81831 61.8834 9.8728C61.8618 9.92729 61.8571 9.98691 61.8697 10.0441C61.9689 10.5249 62.9718 11.1369 63.0489 11.4429C63.1261 11.7489 63.2473 11.6942 63.4787 11.7161C63.9967 11.7161 64.0628 13.2023 64.5147 13.4318C64.7682 13.563 64.8784 13.6504 64.9004 13.7597C64.9224 13.8689 64.9004 13.8689 64.7571 13.9564C64.6139 14.0438 64.5918 14.0657 64.6028 14.0984C64.6139 14.1312 64.6028 14.0984 64.8233 14.0984C65.1759 14.0329 64.9224 14.3607 65.3633 14.5356C65.5506 14.6011 65.6057 14.623 65.6057 14.6667C65.6057 14.7104 65.6057 14.6667 65.6057 14.6667H65.4735H65.3743C65.3743 14.6667 65.9033 14.8853 65.9253 14.9946C65.9474 15.1038 65.9253 14.9946 65.8482 14.9946C66.1214 15.3569 66.4236 15.6967 66.7519 16.0109C66.8097 15.9961 66.8704 15.9961 66.9282 16.0109C66.9282 16.0109 66.807 16.0655 66.807 16.0983C66.807 16.1311 67.6004 17.5627 67.909 17.6829L68.1956 17.814C68.1185 17.819 68.0412 17.819 67.9641 17.814H67.876C67.876 17.814 68.3498 18.0872 68.3719 18.1965C68.3939 18.3058 68.3719 18.1965 68.2947 18.1965C68.5677 18.5624 68.8699 18.9059 69.1984 19.2238C69.2524 19.2083 69.3097 19.2083 69.3637 19.2238C69.3637 19.2238 69.2094 19.2893 69.2094 19.3221C69.4952 19.905 69.8666 20.4427 70.3115 20.9176C70.3998 20.9442 70.4796 20.9931 70.5429 21.0597H70.3335H70.2013C70.2013 21.0597 70.2895 21.1143 70.4768 21.1908C70.8295 21.3548 70.6642 21.5952 70.8625 21.5624C70.9461 21.5463 71.0274 21.5206 71.105 21.4859C71.4576 21.3657 71.6009 20.9613 71.8103 19.2019C72.4054 14.7323 74.2458 9.20262 75.5132 7.89123C75.7106 7.65901 75.9525 7.46796 76.2249 7.32914C76.4974 7.19032 76.7948 7.10651 77.1002 7.08255L77.9818 6.97327C77.9818 7.44318 77.9818 7.67267 77.9818 8.13165V8.62342C77.9818 9.07148 77.9818 9.24633 78.2133 9.2354L78.4888 9.25726Z" fill="#4A3B8F"/>
<path d="M92.6283 18.9833C92.6283 18.885 92.5621 18.7429 92.5621 18.6336C92.5621 18.5243 92.7495 18.3932 93.4548 18.4369C93.8418 18.4572 94.2189 18.5657 94.5569 18.7538C95.1194 19.8367 95.4247 21.0329 95.4495 22.2508C95.4495 22.4585 94.9867 22.5349 94.5018 22.5022C94.0168 22.4694 93.7083 22.1634 93.3997 22.1525C93.3312 22.1506 93.2635 22.1668 93.2035 22.1994C93.1434 22.2321 93.0932 22.28 93.0581 22.3382C92.4714 22.9847 91.7516 23.4987 90.9474 23.8456C90.1432 24.1925 89.2732 24.3642 88.3963 24.349C86.071 24.349 85.3877 23.9119 83.3489 22.3055C82.4034 21.6302 81.6328 20.7423 81.1003 19.7146C80.5677 18.687 80.2884 17.5487 80.2852 16.3933C80.2821 14.1512 80.8997 11.9513 82.0705 10.0332C83.2546 8.36003 84.9109 7.07119 86.8314 6.32853C88.22 6.05533 88.2751 5.58542 90.0494 5.62913C93.1242 5.70563 94.5458 6.35039 94.8103 8.5688C94.8985 9.37748 95.4054 9.83646 95.3173 11.0604C95.2181 12.5248 94.2703 13.6613 92.1323 15.2896C90.7449 16.5005 89.0483 17.3096 87.2282 17.6282C86.7653 17.6282 86.5118 17.2785 86.2143 17.2785C86.1371 17.2785 86.093 17.3878 86.093 17.5626C86.093 18.9942 87.3053 19.7483 88.9143 19.8029C89.4984 19.8138 92.5731 19.3767 92.6283 18.9833ZM91.3388 9.83646C90.1706 9.83646 88.2751 11.3664 86.7983 13.8471C86.2717 14.6255 85.9393 15.517 85.8285 16.448C85.8285 16.6884 85.9167 17.0381 86.1702 17.0381C86.4236 17.0381 86.9306 16.5354 87.4045 16.3715C88.9702 15.5729 90.3542 14.4646 91.4711 13.1149C91.9232 12.4878 92.1972 11.7519 92.2646 10.9839C92.3087 10.3938 92.0221 9.83646 91.3388 9.83646ZM87.5918 21.4749C87.7571 21.4749 87.9555 21.4749 87.9555 21.4094C87.9555 21.3438 87.8784 21.4094 87.6359 21.4094C87.3935 21.4094 87.2612 21.4094 87.2612 21.4094C87.2901 21.4014 87.3205 21.4014 87.3494 21.4094C87.4223 21.4535 87.5064 21.4762 87.5918 21.4749ZM91.8458 7.26835C91.8458 7.17 91.3058 7.00607 90.7437 6.98422C90.1817 6.96236 89.6417 7.10443 89.6417 7.20278C89.6417 7.30113 89.9172 7.34485 90.7437 7.3667C91.5703 7.38856 91.8458 7.30113 91.8458 7.22464V7.26835Z" fill="#4A3B8F"/>
<path d="M98.5685 23.5622C98.5882 23.304 98.5882 23.0446 98.5685 22.7863C98.5685 17.8686 99.5713 2.3616 98.6787 2.02282C98.3921 1.92447 97.6868 1.65127 97.7089 1.41085C97.7309 1.17043 97.8742 1.24692 98.2158 1.17043C98.866 1.06115 98.877 0.91908 98.8991 0.602164C99.0093 0.00111514 101.048 -0.0972383 102.492 0.0776122C102.956 0.114816 103.41 0.229345 103.836 0.416385C104.244 0.678661 103.902 2.78779 104.288 2.84243C104.674 2.89708 104.696 5.36684 104.696 5.89139C104.673 10.9073 104.393 15.9188 103.858 20.9067C103.517 23.8573 103.484 24.7752 103.671 24.8736C103.757 24.9198 103.823 24.9943 103.859 25.084C103.896 25.1738 103.899 25.2733 103.869 25.3654C103.869 25.7478 103.296 25.7041 103.252 26.0101C103.208 26.3161 103.318 26.5565 103.252 26.7642C103.186 26.9718 102.712 26.9937 103.395 27.3871L103.969 27.7258L103.23 27.9225C102.806 28.0537 102.357 28.0836 101.919 28.01C99.406 27.6384 98.9652 27.3215 97.1248 25.6604C97.0146 25.5511 96.9374 25.5074 96.9484 25.4419C96.9595 25.3763 97.2791 25.2889 98.0505 25.3763L98.9431 25.4746C99.6485 25.5511 99.924 25.5511 99.935 25.4746C99.946 25.3981 99.417 25.1577 98.8329 25.0922C98.2489 25.0266 97.9072 24.8845 97.9293 24.6769C97.9733 24.3053 98.5023 24.2179 98.5685 23.5622Z" fill="#4A3B8F"/>
<path d="M108.884 14.9945C108.884 14.8197 109.104 14.5683 109.556 14.0875C111.661 11.9019 116.675 10.809 121.436 12.1532C123.058 12.6247 124.578 13.3878 125.922 14.4044C127.299 15.4972 126.506 16.4917 126.671 18.0435C126.537 19.398 126.164 20.7185 125.569 21.9449C124.246 25.5621 123.949 27.4636 123.144 30.0754C123.072 30.5276 123.028 30.9838 123.012 31.4414C122.913 31.7037 122.428 31.5617 121.91 31.3759C121.416 31.2302 120.963 30.972 120.588 30.6218C120.554 30.5579 120.507 30.5016 120.45 30.4565C120.393 30.4113 120.327 30.3783 120.257 30.3596C119.692 30.2648 119.114 30.2648 118.549 30.3596C116.482 30.5313 114.401 30.3652 112.388 29.8678C110.361 29.4472 108.522 28.3941 107.142 26.8625C106.47 26.0101 105.269 24.7643 105.489 23.5294C105.651 22.8169 105.958 22.1445 106.39 21.5528C106.821 20.9611 107.37 20.4625 108.002 20.0871C109.765 18.9943 111.804 18.3932 118.67 18.3058C120.499 18.3058 121.469 17.8577 121.756 16.9507C122.263 15.3552 121.15 14.4591 119.486 13.9891C118.31 13.687 117.095 13.5617 115.882 13.6176C114.78 13.6176 114.603 13.7378 114.46 14.317C114.317 14.8962 114.636 15.1147 114.57 15.4098C114.438 15.9453 112.024 16.8195 110.614 16.5026C109.891 16.1932 109.286 15.6654 108.884 14.9945ZM112.686 26.633C112.024 26.4691 111.253 26.1085 110.856 26.0211C110.702 26.0211 110.581 26.0211 110.559 26.0211C110.493 26.3271 111.044 26.5893 111.661 26.7533C112.124 26.8625 113.865 27.1467 113.865 26.9062C113.865 26.9062 113.799 26.9062 113.6 26.8079L112.686 26.633ZM112.818 25.1577C114.19 25.4784 115.588 25.6831 116.995 25.7697C117.612 25.7697 117.921 25.8353 118.538 25.9009L119.056 24.2288C119.508 22.7535 119.541 22.5022 119.133 22.382C118.129 22.3328 117.123 22.3988 116.135 22.5787C112.917 23.0486 111.462 23.6715 111.33 24.1851C111.198 24.6988 111.903 24.9282 112.818 25.1359V25.1577ZM119.309 12.3827C119.046 12.28 118.765 12.2316 118.483 12.2406C118.483 12.3062 121.117 13.2242 121.789 13.4318C122.097 13.5302 122.329 13.5629 122.34 13.5302C121.381 13.025 120.363 12.6396 119.309 12.3827Z" fill="#4A3B8F"/>
<path d="M131.685 16.0655C131.465 15.9781 131.289 15.8033 131.322 15.7049C131.355 15.6065 131.564 15.6065 131.74 15.7049C131.917 15.8033 132.126 15.7049 132.159 15.6503C132.192 15.5956 132.699 15.7049 133.349 15.9781C134.562 16.4699 136.281 17.355 136.358 17.4097C136.299 18.7568 136.095 20.0938 135.752 21.3985C135.609 21.7154 135.62 21.9121 135.829 21.9995C136.231 22.0835 136.648 22.0494 137.03 21.9012C139.994 21.2678 143.084 21.5934 145.847 22.83C147.29 23.6278 148.679 25.3435 148.503 25.6495L148.37 25.8571C148.336 25.8967 148.318 25.9471 148.318 25.9992C148.318 26.0513 148.336 26.1017 148.37 26.1413C148.37 26.2178 148.37 26.2178 148.47 26.2396C148.569 26.2615 148.47 25.9555 148.47 25.9009C148.47 25.8462 148.47 25.9009 148.525 25.9009C148.58 25.9009 148.657 26.1413 148.69 26.4473C148.723 26.7532 148.69 26.7532 148.69 26.786C148.69 26.8188 148.69 26.786 148.635 26.786C148.577 26.7605 148.527 26.7188 148.492 26.6658V26.6112H148.426C148.469 26.7873 148.528 26.9592 148.602 27.1248C148.757 27.6455 148.757 28.1997 148.602 28.7203C148.594 28.7296 148.583 28.7371 148.572 28.7422C148.561 28.7473 148.548 28.7499 148.536 28.7499C148.523 28.7499 148.511 28.7473 148.5 28.7422C148.488 28.7371 148.478 28.7296 148.47 28.7203C148.315 28.6329 148.238 28.5782 148.216 28.611C148.194 28.6438 148.514 29.0809 148.481 29.1465C148.448 29.2121 148.426 29.1465 148.271 29.0482C148.117 28.9498 148.073 28.9279 148.051 28.9607C148.029 28.9935 148.051 29.0809 148.139 29.2558C148.266 29.8429 148.266 30.45 148.139 31.0371C147.619 32.8409 146.787 34.5417 145.681 36.064C143.852 38.9163 142.541 40.5773 142.166 40.5555C142.152 40.5439 142.134 40.5376 142.116 40.5376C142.098 40.5376 142.081 40.5439 142.067 40.5555C141.99 40.6757 142.144 41.1893 142.067 41.3642C141.99 41.539 141.857 41.4844 141.483 41.244C141.317 41.1263 141.112 41.0755 140.91 41.1019C140.132 40.7418 139.374 40.3406 138.639 39.8998C137.747 39.3862 136.942 38.8616 137.119 38.5556C137.163 38.3673 137.147 38.1697 137.072 37.9911C136.997 37.8125 136.866 37.662 136.7 37.5612C136.424 37.4082 136.358 37.2661 136.446 37.1131C136.645 36.7416 137.857 36.4137 138.562 36.3154C139.268 36.217 139.929 35.4302 141.174 33.2664C143.246 29.6601 144.48 27.0374 142.441 25.9664C140.017 24.666 135.521 24.8736 134.507 25.6932C134.01 26.338 133.612 27.0525 133.327 27.8133C132.865 28.8296 132.225 30.436 131.377 32.3157C131.002 33.1025 130.44 33.8456 130.275 34.3264C130.143 34.6106 130.275 34.8073 130.275 34.9384C130.275 35.0696 130.176 35.0477 129.944 35.0914C129.114 35.0903 128.296 34.8996 127.553 34.5341C126.682 34.1625 125.933 33.7035 126.054 33.4413C126.274 32.9276 125.084 32.4905 125.227 32.1299C125.227 32.0315 125.36 31.9988 125.646 31.9223C126.175 31.7911 126.274 31.9223 127.52 28.8296C127.96 27.7368 128.534 26.2833 129.316 24.3381C131.024 20.1089 131.421 18.8741 131.256 18.5134C130.947 17.9452 131.443 17.4206 130.561 17.0381C130.154 16.8414 129.999 16.7103 130.076 16.5136V16.448C130.286 16.153 132.721 17.0381 132.832 16.7868C132.942 16.5354 131.983 16.1857 131.685 16.0655ZM145.02 23.9338C144.447 23.5894 143.803 23.3766 143.136 23.3109C143.136 23.3655 143.29 23.5076 143.863 23.8136C144.436 24.1196 144.965 24.3381 144.965 24.2398C144.983 24.2236 145.007 24.2147 145.031 24.2147C145.056 24.2147 145.079 24.2236 145.097 24.2398C145.175 24.2398 145.307 24.4365 145.384 24.4802C145.461 24.5239 145.384 24.4802 145.384 24.4802C145.384 24.4802 145.351 24.1086 145.02 23.9338ZM146.739 25.42C146.739 25.7077 146.815 25.9903 146.96 26.2396C146.955 25.9527 146.879 25.6713 146.739 25.42Z" fill="#4A3B8F"/>
<path d="M158.697 52.1175C158.697 52.1721 158.785 52.3907 159.149 52.7513C159.512 53.112 160.019 53.9207 159.843 54.0955C159.667 54.2703 159.314 53.9207 159.259 53.9644C159.204 54.0081 159.259 54.1283 159.501 54.4452L159.898 54.9916L159.149 54.7403C158.602 54.4901 158.1 54.1543 157.661 53.7458C156.748 52.8829 156.19 51.7147 156.096 50.4674C156.307 49.2064 156.821 48.0144 157.595 46.9922C157.826 46.7299 157.903 46.566 157.804 46.4895C157.705 46.413 157.099 46.4895 156.151 46.6862C154.09 47.2436 151.633 47.5605 149.406 45.8775C147.18 44.1946 147.037 42.6647 146.431 40.7741C146.257 40.1515 146.233 39.4974 146.359 38.8638C146.485 38.2302 146.759 37.6345 147.158 37.1241C147.798 36.2125 148.538 35.3733 149.362 34.6216C149.946 34.0751 154.046 31.7365 154.189 31.5398C154.873 31.321 155.587 31.2139 156.305 31.2229C158.479 31.1252 160.622 31.7565 162.389 33.0151C162.906 33.3929 163.339 33.8722 163.661 34.423C163.983 34.9738 164.188 35.5845 164.262 36.2171C164.272 36.6292 164.323 37.0393 164.417 37.441C164.84 37.1174 165.244 36.7708 165.629 36.4028C166.433 35.6707 167.469 35.1133 167.833 34.6325C168.086 34.3483 168.153 34.1189 167.833 33.8238C167.761 33.7714 167.71 33.696 167.688 33.6103C167.666 33.5247 167.674 33.434 167.712 33.3539C167.787 33.3081 167.876 33.2886 167.964 33.2985C168.052 33.3084 168.134 33.3471 168.197 33.4085C168.294 33.4748 168.409 33.5102 168.527 33.5102C168.645 33.5102 168.761 33.4748 168.858 33.4085C169.321 33.0479 171.304 34.097 172.396 35.0915C172.891 35.5395 173.299 36.075 173.057 36.3263C172.814 36.5777 172.748 36.3263 172.594 36.523C172.314 37.0076 172.12 37.5362 172.021 38.0858C172.087 38.1623 172.021 38.206 172.021 38.2825C171.778 38.5448 171.117 38.8726 170.919 39.0256C170.357 39.6157 170.919 39.572 170.224 40.2605C169.437 41.0253 168.589 41.7269 167.69 42.3587C167.282 42.6428 164.99 44.9814 162.797 47.2982L160.956 49.2325L159.325 51.0247L159.854 51.7132C160.504 52.5218 160.747 53.0683 160.625 53.1885C160.504 53.3087 158.917 51.9208 158.697 52.1175ZM160.989 37.3645C160.473 36.9815 159.837 36.7918 159.193 36.829C157.892 36.829 153.517 38.0202 152.073 39.9545C151.522 40.6867 151.291 41.6483 152.073 42.2166C152.856 42.7849 154.884 43.1236 157.275 43.1455C158.02 43.0969 158.767 43.1858 159.479 43.4078C159.623 43.528 159.777 43.4733 160.052 43.1564C161.287 41.703 162.686 38.7196 161.011 37.3645H160.989ZM161.11 34.3593C161.408 34.5888 162.212 34.851 162.212 34.7418C162.212 34.6325 162.212 34.6325 162.003 34.4795C161.794 34.3265 161.022 34.0205 160.901 34.1298C160.78 34.2391 161.022 34.2719 161.132 34.3593H161.11ZM162.83 35.1898C162.796 35.4813 162.83 35.7766 162.929 36.0531C162.975 35.7635 162.949 35.4669 162.852 35.1898H162.83Z" fill="#4A3B8F"/>
</svg>
