<svg width="50" height="45" viewBox="0 0 50 45" fill="none" xmlns="http://www.w3.org/2000/svg">
<path d="M47.7131 10.8747C47.1679 8.80201 45.5615 7.16962 43.5218 6.61564C39.8247 5.60901 25 5.60901 25 5.60901C25 5.60901 10.1753 5.60901 6.47821 6.61564C4.43854 7.16971 2.83212 8.80201 2.28689 10.8747C1.29626 14.6316 1.29626 22.4699 1.29626 22.4699C1.29626 22.4699 1.29626 30.3083 2.28689 34.0652C2.83212 36.1379 4.43854 37.7022 6.47821 38.2562C10.1753 39.2629 25 39.2629 25 39.2629C25 39.2629 39.8247 39.2629 43.5218 38.2562C45.5615 37.7022 47.1679 36.1379 47.7131 34.0652C48.7037 30.3083 48.7037 22.4699 48.7037 22.4699C48.7037 22.4699 48.7037 14.6316 47.7131 10.8747ZM20.1515 29.5866V15.3533L32.542 22.4701L20.1515 29.5866Z" fill="white"/>
</svg>
